<svg xmlns="http://www.w3.org/2000/svg" xmlns:xlink="http://www.w3.org/1999/xlink" preserveAspectRatio="xMidYMid" width="14.031" height="14" viewBox="0 0 14.031 14">
  <defs>
    <style>
      .cls-1 {
        fill: #fff;
        fill-rule: evenodd;
      }
    </style>
  </defs>
  <path d="M13.887,13.878 C13.797,13.968 13.691,14.013 13.567,14.013 L10.380,14.013 C10.181,14.013 10.041,13.920 9.960,13.735 C9.936,13.674 9.924,13.616 9.925,13.558 C9.925,13.434 9.970,13.327 10.060,13.238 L10.916,12.381 C10.901,12.368 10.881,12.363 10.867,12.349 L9.176,10.658 C8.920,10.402 8.920,9.983 9.176,9.727 L9.734,9.168 C9.991,8.912 10.409,8.912 10.665,9.168 L12.357,10.859 C12.371,10.874 12.377,10.893 12.389,10.909 L13.246,10.051 C13.389,9.903 13.553,9.870 13.738,9.951 C13.928,10.031 14.022,10.172 14.022,10.372 L14.022,13.558 C14.022,13.682 13.978,13.787 13.887,13.878 ZM13.743,4.064 C13.682,4.088 13.623,4.100 13.566,4.099 C13.442,4.099 13.335,4.054 13.246,3.964 L12.389,3.108 C12.376,3.123 12.371,3.143 12.357,3.157 L10.666,4.848 C10.410,5.104 9.991,5.104 9.735,4.848 L9.176,4.290 C8.920,4.034 8.920,3.615 9.176,3.359 L10.867,1.668 C10.882,1.653 10.901,1.648 10.917,1.635 L10.059,0.778 C9.911,0.635 9.878,0.471 9.959,0.286 C10.039,0.096 10.180,0.002 10.380,0.002 L13.566,0.002 C13.689,0.002 13.795,0.046 13.886,0.137 C13.976,0.227 14.021,0.333 14.021,0.457 L14.021,3.644 C14.021,3.843 13.928,3.983 13.743,4.064 ZM4.297,4.848 C4.041,5.104 3.623,5.104 3.367,4.848 L1.675,3.157 C1.661,3.142 1.655,3.123 1.643,3.107 L0.786,3.965 C0.643,4.113 0.479,4.146 0.294,4.065 C0.104,3.985 0.010,3.844 0.010,3.644 L0.010,0.458 C0.010,0.335 0.054,0.229 0.145,0.138 C0.235,0.049 0.341,0.003 0.465,0.003 L3.652,0.003 C3.851,0.003 3.991,0.096 4.072,0.281 C4.096,0.342 4.108,0.401 4.107,0.459 C4.107,0.582 4.062,0.689 3.972,0.778 L3.116,1.635 C3.131,1.648 3.151,1.653 3.165,1.667 L4.856,3.359 C5.112,3.615 5.112,4.034 4.856,4.290 L4.297,4.848 ZM0.289,9.953 C0.350,9.928 0.409,9.916 0.466,9.917 C0.590,9.917 0.697,9.962 0.786,10.052 L1.643,10.908 C1.656,10.893 1.661,10.874 1.675,10.859 L3.366,9.168 C3.622,8.912 4.041,8.912 4.297,9.168 L4.856,9.727 C5.112,9.983 5.112,10.402 4.856,10.658 L3.165,12.349 C3.150,12.363 3.131,12.369 3.115,12.382 L3.973,13.239 C4.121,13.381 4.154,13.545 4.073,13.730 C3.993,13.920 3.852,14.014 3.652,14.014 L0.466,14.014 C0.342,14.014 0.237,13.970 0.146,13.879 C0.056,13.789 0.011,13.683 0.011,13.559 L0.011,10.372 C0.011,10.173 0.104,10.033 0.289,9.953 Z" class="cls-1"/>
</svg>
