<svg xmlns="http://www.w3.org/2000/svg" xmlns:xlink="http://www.w3.org/1999/xlink" preserveAspectRatio="xMidYMid" width="20.406" height="14.344" viewBox="0 0 20.406 14.344">
  <defs>
    <style>
      .cls-1 {
        fill: #fff;
        fill-rule: evenodd;
      }
    </style>
  </defs>
  <path d="M18.254,12.963 C18.042,13.231 17.763,13.365 17.417,13.365 C17.171,13.365 16.948,13.281 16.747,13.114 C16.513,12.935 16.382,12.698 16.354,12.402 C16.326,12.107 16.407,11.842 16.597,11.607 C17.713,10.234 18.271,8.661 18.271,6.886 C18.271,5.112 17.713,3.538 16.597,2.165 C16.407,1.931 16.326,1.666 16.354,1.370 C16.382,1.074 16.513,0.832 16.747,0.642 C16.970,0.452 17.233,0.374 17.534,0.407 C17.836,0.441 18.075,0.575 18.254,0.809 C19.694,2.584 20.414,4.609 20.414,6.886 C20.414,9.163 19.694,11.189 18.254,12.963 ZM13.885,10.887 C13.617,10.887 13.371,10.793 13.148,10.603 C12.936,10.402 12.824,10.154 12.813,9.858 C12.802,9.562 12.902,9.303 13.115,9.079 C13.695,8.443 13.985,7.712 13.985,6.886 C13.985,6.060 13.695,5.329 13.115,4.693 C12.902,4.470 12.802,4.210 12.813,3.915 C12.824,3.619 12.936,3.371 13.148,3.170 C13.360,2.969 13.617,2.874 13.918,2.885 C14.219,2.896 14.471,3.008 14.671,3.220 C15.642,4.258 16.128,5.480 16.128,6.886 C16.128,8.292 15.642,9.514 14.671,10.552 C14.448,10.776 14.186,10.887 13.885,10.887 ZM8.225,14.349 C8.021,14.349 7.844,14.275 7.694,14.125 L3.766,10.197 L0.770,10.197 C0.565,10.197 0.388,10.122 0.239,9.973 C0.089,9.824 0.015,9.647 0.015,9.442 L0.015,4.913 C0.015,4.708 0.089,4.531 0.239,4.382 C0.388,4.232 0.565,4.158 0.770,4.158 L3.766,4.158 L7.694,0.230 C7.844,0.080 8.021,0.005 8.225,0.005 C8.430,0.005 8.606,0.080 8.756,0.230 C8.905,0.379 8.980,0.556 8.980,0.760 L8.980,13.594 C8.980,13.799 8.905,13.976 8.756,14.125 C8.606,14.275 8.430,14.349 8.225,14.349 Z" class="cls-1"/>
</svg>
