<svg xmlns="http://www.w3.org/2000/svg" xmlns:xlink="http://www.w3.org/1999/xlink" preserveAspectRatio="xMidYMid" width="13.031" height="14" viewBox="0 0 13.031 14">
  <defs>
    <style>
      .cls-1 {
        fill: #fff;
        fill-rule: evenodd;
      }
    </style>
  </defs>
  <path d="M0.179,13.834 C0.294,13.950 0.431,14.007 0.589,14.007 L4.446,14.007 C4.604,14.007 4.741,13.950 4.856,13.834 C4.972,13.719 5.030,13.582 5.030,13.424 L5.030,0.583 C5.030,0.425 4.972,0.288 4.856,0.173 C4.741,0.057 4.604,-0.001 4.446,-0.001 L0.589,-0.001 C0.431,-0.001 0.294,0.057 0.179,0.173 C0.063,0.288 0.005,0.425 0.005,0.583 L0.005,13.424 C0.005,13.582 0.063,13.719 0.179,13.834 ZM8.194,13.834 C8.309,13.950 8.446,14.007 8.604,14.007 L12.586,14.007 C12.744,14.007 12.756,13.950 12.871,13.834 C12.987,13.719 13.045,13.582 13.045,13.424 L13.045,0.583 C13.045,0.425 12.987,0.288 12.871,0.173 C12.756,0.057 12.744,-0.001 12.586,-0.001 L8.604,-0.001 C8.446,-0.001 8.309,0.057 8.194,0.173 C8.078,0.288 8.021,0.425 8.021,0.583 L8.021,13.424 C8.021,13.582 8.078,13.719 8.194,13.834 Z" class="cls-1"/>
</svg>
