<svg xmlns="http://www.w3.org/2000/svg" xmlns:xlink="http://www.w3.org/1999/xlink" preserveAspectRatio="xMidYMid" width="14.031" height="14" viewBox="0 0 14.031 14">
  <defs>
    <style>
      .cls-1 {
        fill: #fff;
        fill-rule: evenodd;
      }
    </style>
  </defs>
  <path d="M0.080,8.202 C0.129,8.266 0.193,8.304 0.272,8.316 L1.941,8.562 C2.027,8.860 2.151,9.161 2.316,9.465 C2.206,9.617 2.042,9.832 1.823,10.109 C1.604,10.385 1.449,10.588 1.358,10.715 C1.309,10.782 1.285,10.852 1.285,10.925 C1.285,11.004 1.306,11.074 1.348,11.135 C1.586,11.463 2.087,11.974 2.854,12.668 C2.921,12.735 2.997,12.768 3.082,12.768 C3.173,12.768 3.249,12.741 3.310,12.686 L4.596,11.710 C4.846,11.837 5.120,11.950 5.418,12.047 L5.673,13.726 C5.679,13.805 5.714,13.870 5.778,13.922 C5.842,13.974 5.916,14.000 6.002,14.000 L8.027,14.000 C8.203,14.000 8.313,13.914 8.355,13.744 C8.434,13.440 8.523,12.874 8.620,12.047 C8.906,11.956 9.182,11.841 9.450,11.701 L10.709,12.686 C10.794,12.741 10.873,12.768 10.946,12.768 C11.080,12.768 11.366,12.552 11.804,12.120 C12.242,11.688 12.543,11.360 12.707,11.135 C12.762,11.074 12.789,11.004 12.789,10.925 C12.789,10.846 12.759,10.770 12.698,10.697 C12.260,10.162 11.935,9.742 11.722,9.438 C11.843,9.213 11.962,8.936 12.078,8.608 L13.766,8.352 C13.839,8.340 13.899,8.301 13.948,8.234 C13.997,8.167 14.021,8.097 14.021,8.024 L14.021,5.998 C14.021,5.919 13.997,5.848 13.948,5.784 C13.899,5.720 13.835,5.682 13.756,5.670 L12.087,5.414 C11.996,5.123 11.871,4.825 11.713,4.520 C11.822,4.368 11.987,4.154 12.205,3.877 C12.424,3.600 12.580,3.398 12.671,3.270 C12.719,3.204 12.744,3.134 12.744,3.061 C12.744,2.975 12.722,2.909 12.680,2.860 C12.461,2.550 11.959,2.033 11.175,1.309 C11.102,1.248 11.025,1.218 10.946,1.218 C10.855,1.218 10.782,1.245 10.727,1.300 L9.432,2.276 C9.182,2.148 8.909,2.036 8.611,1.938 L8.355,0.260 C8.349,0.181 8.314,0.115 8.250,0.064 C8.187,0.012 8.112,-0.014 8.027,-0.014 L6.002,-0.014 C5.825,-0.014 5.716,0.071 5.673,0.241 C5.594,0.546 5.506,1.111 5.408,1.938 C5.123,2.030 4.846,2.145 4.578,2.285 L3.319,1.309 C3.240,1.248 3.161,1.218 3.082,1.218 C2.948,1.218 2.661,1.435 2.220,1.870 C1.779,2.305 1.479,2.632 1.321,2.851 C1.266,2.930 1.239,3.000 1.239,3.061 C1.239,3.134 1.269,3.207 1.330,3.280 C1.738,3.772 2.063,4.192 2.306,4.539 C2.154,4.818 2.036,5.098 1.951,5.378 L0.254,5.633 C0.187,5.646 0.129,5.685 0.080,5.752 C0.032,5.819 0.007,5.889 0.007,5.962 L0.007,7.987 C0.007,8.066 0.032,8.138 0.080,8.202 ZM7.014,4.657 C7.659,4.657 8.209,4.885 8.666,5.341 C9.122,5.798 9.350,6.348 9.350,6.993 C9.350,7.638 9.122,8.188 8.666,8.644 C8.209,9.100 7.659,9.328 7.014,9.328 C6.369,9.328 5.819,9.100 5.363,8.644 C4.907,8.188 4.679,7.638 4.679,6.993 C4.679,6.348 4.907,5.798 5.363,5.341 C5.819,4.885 6.369,4.657 7.014,4.657 Z" class="cls-1"/>
</svg>
