<svg xmlns="http://www.w3.org/2000/svg" xmlns:xlink="http://www.w3.org/1999/xlink" preserveAspectRatio="xMidYMid" width="14.094" height="14.093" viewBox="0 0 14.094 14.093">
  <defs>
    <style>
      .cls-1 {
        fill: #fff;
        fill-rule: evenodd;
      }
    </style>
  </defs>
  <path d="M0.181,5.699 C0.298,5.815 0.435,5.873 0.594,5.873 L4.705,5.873 C4.962,5.873 5.142,5.751 5.246,5.506 C5.350,5.267 5.308,5.056 5.118,4.873 L3.861,3.607 C4.289,3.203 4.779,2.892 5.329,2.675 C5.880,2.458 6.455,2.349 7.054,2.349 C7.690,2.349 8.297,2.473 8.875,2.721 C9.454,2.969 9.954,3.304 10.376,3.726 C10.798,4.148 11.133,4.648 11.380,5.226 C11.628,5.804 11.752,6.411 11.752,7.047 C11.752,7.684 11.628,8.291 11.380,8.869 C11.133,9.447 10.798,9.947 10.376,10.369 C9.954,10.791 9.454,11.126 8.875,11.374 C8.297,11.622 7.690,11.745 7.054,11.745 C6.326,11.745 5.638,11.586 4.990,11.268 C4.341,10.950 3.794,10.501 3.347,9.919 C3.304,9.858 3.234,9.822 3.136,9.809 C3.044,9.809 2.968,9.837 2.907,9.892 L1.650,11.158 C1.601,11.207 1.575,11.270 1.572,11.346 C1.568,11.423 1.588,11.492 1.631,11.553 C2.298,12.360 3.105,12.986 4.054,13.429 C5.002,13.873 6.002,14.094 7.054,14.094 C8.008,14.094 8.920,13.908 9.789,13.535 C10.657,13.161 11.406,12.660 12.037,12.030 C12.666,11.400 13.168,10.650 13.541,9.782 C13.914,8.913 14.101,8.002 14.101,7.047 C14.101,6.093 13.914,5.182 13.541,4.313 C13.168,3.445 12.666,2.695 12.037,2.065 C11.406,1.435 10.657,0.933 9.789,0.560 C8.920,0.187 8.008,0.000 7.054,0.000 C6.155,0.000 5.285,0.170 4.444,0.510 C3.602,0.849 2.855,1.328 2.200,1.946 L1.007,0.762 C0.824,0.573 0.613,0.530 0.374,0.634 C0.129,0.738 0.007,0.918 0.007,1.175 L0.007,5.286 C0.007,5.445 0.065,5.582 0.181,5.699 ZM5.132,8.925 C5.180,8.973 5.242,8.997 5.317,8.997 L7.721,8.997 C7.795,8.997 7.857,8.973 7.905,8.925 C7.953,8.877 7.977,8.815 7.977,8.740 L7.977,4.981 C7.977,4.906 7.953,4.845 7.905,4.797 C7.857,4.749 7.795,4.724 7.721,4.724 L7.207,4.724 C7.132,4.724 7.071,4.749 7.022,4.797 C6.974,4.845 6.950,4.906 6.950,4.981 L6.950,7.970 L5.317,7.970 C5.242,7.970 5.180,7.994 5.132,8.042 C5.084,8.090 5.060,8.152 5.060,8.227 L5.060,8.740 C5.060,8.815 5.084,8.877 5.132,8.925 Z" class="cls-1"/>
</svg>
