<svg xmlns="http://www.w3.org/2000/svg" xmlns:xlink="http://www.w3.org/1999/xlink" preserveAspectRatio="xMidYMid" width="14.094" height="14.093" viewBox="0 0 14.094 14.093">
  <defs>
    <style>
      .cls-1 {
        fill: #fff;
        fill-rule: evenodd;
      }
    </style>
  </defs>
  <path d="M13.912,5.699 C13.796,5.815 13.659,5.873 13.500,5.873 L9.389,5.873 C9.132,5.873 8.952,5.751 8.847,5.506 C8.744,5.267 8.786,5.056 8.976,4.873 L10.233,3.607 C9.805,3.203 9.315,2.892 8.765,2.675 C8.214,2.458 7.639,2.349 7.040,2.349 C6.404,2.349 5.797,2.473 5.218,2.721 C4.640,2.969 4.140,3.304 3.718,3.726 C3.296,4.148 2.961,4.648 2.714,5.226 C2.466,5.804 2.342,6.411 2.342,7.047 C2.342,7.684 2.466,8.291 2.714,8.869 C2.961,9.447 3.296,9.947 3.718,10.369 C4.140,10.791 4.640,11.126 5.218,11.374 C5.797,11.622 6.404,11.745 7.040,11.745 C7.768,11.745 8.456,11.586 9.104,11.268 C9.753,10.950 10.300,10.501 10.747,9.919 C10.790,9.858 10.860,9.822 10.958,9.809 C11.050,9.809 11.126,9.837 11.187,9.892 L12.444,11.158 C12.493,11.207 12.519,11.270 12.522,11.346 C12.526,11.423 12.506,11.492 12.463,11.553 C11.796,12.360 10.989,12.986 10.040,13.429 C9.092,13.873 8.092,14.094 7.040,14.094 C6.086,14.094 5.174,13.908 4.306,13.535 C3.437,13.161 2.688,12.660 2.057,12.030 C1.427,11.400 0.926,10.650 0.553,9.782 C0.180,8.913 -0.007,8.002 -0.007,7.047 C-0.007,6.093 0.180,5.182 0.553,4.313 C0.926,3.445 1.427,2.695 2.057,2.065 C2.688,1.435 3.437,0.933 4.306,0.560 C5.174,0.187 6.086,0.000 7.040,0.000 C7.939,0.000 8.809,0.170 9.650,0.510 C10.492,0.849 11.239,1.328 11.894,1.946 L13.087,0.762 C13.270,0.573 13.481,0.530 13.720,0.634 C13.965,0.738 14.087,0.918 14.087,1.175 L14.087,5.286 C14.087,5.445 14.029,5.582 13.912,5.699 ZM8.962,8.925 C8.914,8.973 8.852,8.997 8.777,8.997 L6.373,8.997 C6.299,8.997 6.237,8.973 6.189,8.925 C6.141,8.877 6.117,8.815 6.117,8.740 L6.117,4.981 C6.117,4.906 6.141,4.845 6.189,4.797 C6.237,4.749 6.299,4.724 6.373,4.724 L6.887,4.724 C6.962,4.724 7.023,4.749 7.071,4.797 C7.120,4.845 7.144,4.906 7.144,4.981 L7.144,7.970 L8.777,7.970 C8.852,7.970 8.914,7.994 8.962,8.042 C9.010,8.090 9.034,8.152 9.034,8.227 L9.034,8.740 C9.034,8.815 9.010,8.877 8.962,8.925 Z" class="cls-1"/>
</svg>
