<svg xmlns="http://www.w3.org/2000/svg" xmlns:xlink="http://www.w3.org/1999/xlink" preserveAspectRatio="xMidYMid" width="21.969" height="14" viewBox="0 0 21.969 14">
  <defs>
    <style>
      .cls-1 {
        fill: #fff;
        fill-rule: evenodd;
      }
    </style>
  </defs>
  <path d="M19.668,13.994 L2.318,13.994 C1.039,13.994 -0.015,12.870 -0.015,11.591 L-0.015,2.119 C-0.015,0.840 1.039,-0.009 2.318,-0.009 L19.668,-0.009 C20.947,-0.009 21.984,0.840 21.984,2.119 L21.984,11.591 C21.984,12.870 20.947,13.994 19.668,13.994 ZM2.000,6.031 L14.000,6.031 L14.000,7.969 L2.000,7.969 L2.000,6.031 ZM2.000,9.000 L11.000,9.000 L11.000,10.969 L2.000,10.969 L2.000,9.000 ZM12.000,9.000 L19.000,9.000 L19.000,10.969 L12.000,10.969 L12.000,9.000 Z" class="cls-1"/>
</svg>
