<svg xmlns="http://www.w3.org/2000/svg" xmlns:xlink="http://www.w3.org/1999/xlink" preserveAspectRatio="xMidYMid" width="19.375" height="14.344" viewBox="0 0 19.375 14.344">
  <defs>
    <style>
      .cls-1 {
        fill: #fff;
        fill-rule: evenodd;
      }
    </style>
  </defs>
  <path d="M17.375,7.188 L19.199,9.012 C19.315,9.128 19.373,9.269 19.373,9.434 C19.373,9.600 19.315,9.740 19.199,9.856 L18.356,10.700 C18.240,10.816 18.099,10.874 17.934,10.874 C17.768,10.874 17.627,10.816 17.512,10.700 L15.688,8.876 L13.863,10.700 C13.748,10.816 13.607,10.874 13.441,10.874 C13.276,10.874 13.135,10.816 13.019,10.700 L12.176,9.856 C12.060,9.740 12.002,9.600 12.002,9.434 C12.002,9.269 12.060,9.128 12.176,9.012 L14.000,7.188 L12.176,5.364 C12.060,5.248 12.002,5.107 12.002,4.942 C12.002,4.777 12.060,4.636 12.176,4.520 L13.019,3.676 C13.135,3.560 13.276,3.502 13.441,3.502 C13.607,3.502 13.748,3.560 13.863,3.676 L15.688,5.500 L17.512,3.676 C17.627,3.560 17.768,3.502 17.934,3.502 C18.099,3.502 18.240,3.560 18.356,3.676 L19.199,4.520 C19.315,4.636 19.373,4.777 19.373,4.942 C19.373,5.107 19.315,5.248 19.199,5.364 L17.375,7.188 ZM8.225,14.349 C8.021,14.349 7.844,14.275 7.694,14.125 L3.766,10.197 L0.770,10.197 C0.565,10.197 0.388,10.122 0.239,9.973 C0.089,9.824 0.015,9.647 0.015,9.442 L0.015,4.913 C0.015,4.708 0.089,4.531 0.239,4.382 C0.388,4.232 0.565,4.158 0.770,4.158 L3.766,4.158 L7.694,0.230 C7.844,0.080 8.021,0.005 8.225,0.005 C8.430,0.005 8.607,0.080 8.756,0.230 C8.905,0.379 8.980,0.556 8.980,0.760 L8.980,13.594 C8.980,13.799 8.905,13.976 8.756,14.125 C8.607,14.275 8.430,14.349 8.225,14.349 Z" class="cls-1"/>
</svg>
